<svg width="161" height="146" viewBox="0 0 161 146" fill="none" xmlns="http://www.w3.org/2000/svg">
<path d="M113.243 32.4145C112.462 31.6333 111.196 31.6333 110.415 32.4145L105.829 37C102.515 40.3137 97.1427 40.3137 93.829 37L89.2435 32.4145C88.4623 31.6333 87.1957 31.6333 86.4145 32.4145C85.6333 33.1957 85.6333 34.4623 86.4145 35.2435L91 39.829C94.3137 43.1427 94.3137 48.5153 91 51.829L86.4145 56.4145C85.6333 57.1957 85.6333 58.4623 86.4145 59.2435C87.1957 60.0247 88.4623 60.0247 89.2435 59.2435L93.829 54.658C97.1427 51.3443 102.515 51.3443 105.829 54.658L110.415 59.2435C111.196 60.0247 112.462 60.0247 113.243 59.2435C114.025 58.4623 114.025 57.1957 113.243 56.4145L108.658 51.829C105.344 48.5153 105.344 43.1427 108.658 39.829L113.243 35.2435C114.025 34.4623 114.025 33.1957 113.243 32.4145Z" fill="black"/>
</svg>
