<svg width="56" height="56" viewBox="0 0 56 56" fill="none" xmlns="http://www.w3.org/2000/svg">
<mask id="path-1-inside-1_21_4296" fill="white">
<path fill-rule="evenodd" clip-rule="evenodd" d="M35 56H21V44.8993L13.1506 52.7487L3.25114 42.8492L11.1004 35H0V21H10.1765L2.71992 14.0748L12.2471 3.8165L21 11.9456V0H35V11.1004L42.8491 3.25124L52.7486 13.1507L44.8993 21H56V35H45.8235L53.2803 41.9253L43.7531 52.1836L35 44.0543V56Z"/>
</mask>
<path fill-rule="evenodd" clip-rule="evenodd" d="M35 56H21V44.8993L13.1506 52.7487L3.25114 42.8492L11.1004 35H0V21H10.1765L2.71992 14.0748L12.2471 3.8165L21 11.9456V0H35V11.1004L42.8491 3.25124L52.7486 13.1507L44.8993 21H56V35H45.8235L53.2803 41.9253L43.7531 52.1836L35 44.0543V56Z" fill="#7FA6BC"/>
<path d="M21 56H17V60H21V56ZM35 56V60H39V56H35ZM21 44.8993H25V35.2425L18.1716 42.0709L21 44.8993ZM13.1506 52.7487L10.3222 55.5771L13.1506 58.4056L15.9791 55.5771L13.1506 52.7487ZM3.25114 42.8492L0.422715 40.0208L-2.40571 42.8492L0.422715 45.6776L3.25114 42.8492ZM11.1004 35L13.9288 37.8284L20.7572 31H11.1004V35ZM0 35H-4V39H0V35ZM0 21V17H-4V21H0ZM10.1765 21V25H20.3614L12.8986 18.0691L10.1765 21ZM2.71992 14.0748L-0.211015 11.3527L-2.93307 14.2837L-0.00213236 17.0057L2.71992 14.0748ZM12.2471 3.8165L14.9692 0.885565L12.0382 -1.83649L9.31618 1.09445L12.2471 3.8165ZM21 11.9456L18.2779 14.8765L25 21.1195V11.9456H21ZM21 0V-4H17V0H21ZM35 0H39V-4H35V0ZM35 11.1004H31V20.7572L37.8284 13.9288L35 11.1004ZM42.8491 3.25124L45.6775 0.422809L42.8491 -2.40562L40.0207 0.422809L42.8491 3.25124ZM52.7486 13.1507L55.577 15.9792L58.4055 13.1507L55.577 10.3223L52.7486 13.1507ZM44.8993 21L42.0709 18.1716L35.2425 25H44.8993V21ZM56 21H60V17H56V21ZM56 35V39H60V35H56ZM45.8235 35V31H35.6387L43.1015 37.9309L45.8235 35ZM53.2803 41.9253L56.2112 44.6474L58.9333 41.7164L56.0023 38.9944L53.2803 41.9253ZM43.7531 52.1836L41.031 55.1145L43.962 57.8366L46.684 54.9056L43.7531 52.1836ZM35 44.0543L37.7221 41.1234L31 34.8804V44.0543H35ZM21 60H35V52H21V60ZM17 44.8993V56H25V44.8993H17ZM15.9791 55.5771L23.8284 47.7278L18.1716 42.0709L10.3222 49.9203L15.9791 55.5771ZM0.422715 45.6776L10.3222 55.5771L15.9791 49.9203L6.07957 40.0208L0.422715 45.6776ZM8.27193 32.1716L0.422715 40.0208L6.07957 45.6776L13.9288 37.8284L8.27193 32.1716ZM0 39H11.1004V31H0V39ZM-4 21V35H4V21H-4ZM10.1765 17H0V25H10.1765V17ZM-0.00213236 17.0057L7.45449 23.9309L12.8986 18.0691L5.44198 11.1439L-0.00213236 17.0057ZM9.31618 1.09445L-0.211015 11.3527L5.65086 16.7968L15.1781 6.53856L9.31618 1.09445ZM23.7221 9.01464L14.9692 0.885565L9.52507 6.74744L18.2779 14.8765L23.7221 9.01464ZM17 0V11.9456H25V0H17ZM35 -4H21V4H35V-4ZM39 11.1004V0H31V11.1004H39ZM40.0207 0.422809L32.1716 8.27193L37.8284 13.9288L45.6775 6.07966L40.0207 0.422809ZM55.577 10.3223L45.6775 0.422809L40.0207 6.07966L49.9202 15.9792L55.577 10.3223ZM47.7278 23.8284L55.577 15.9792L49.9202 10.3223L42.0709 18.1716L47.7278 23.8284ZM56 17H44.8993V25H56V17ZM60 35V21H52V35H60ZM45.8235 39H56V31H45.8235V39ZM56.0023 38.9944L48.5456 32.0691L43.1015 37.9309L50.5582 44.8562L56.0023 38.9944ZM46.684 54.9056L56.2112 44.6474L50.3493 39.2032L40.8221 49.4615L46.684 54.9056ZM32.2779 46.9853L41.031 55.1145L46.4751 49.2527L37.7221 41.1234L32.2779 46.9853ZM39 56V44.0543H31V56H39Z" fill="black" mask="url(#path-1-inside-1_21_4296)"/>
</svg>
